<svg xmlns="http://www.w3.org/2000/svg"  viewBox="0 0 48 48" width="24px" height="24px"><rect width="8" height="8" x="20" y="4" fill="#3dd9eb"/><rect width="8" height="8" x="20" y="36" fill="#3dd9eb"/><rect width="8" height="8" x="36" y="20" fill="#3dd9eb" transform="rotate(90 40 24)"/><rect width="8" height="8" x="4" y="20" fill="#3dd9eb" transform="rotate(90 8 24)"/><rect width="8" height="8" x="31.314" y="31.314" fill="#3dd9eb" transform="rotate(134.999 35.314 35.314)"/><rect width="8" height="8" x="8.686" y="8.686" fill="#3dd9eb" transform="rotate(134.999 12.686 12.686)"/><rect width="8" height="8" x="31.314" y="8.686" fill="#3dd9eb" transform="rotate(45.001 35.314 12.686)"/><rect width="8" height="8" x="8.686" y="31.314" fill="#3dd9eb" transform="rotate(45.001 12.687 35.314)"/><circle cx="24" cy="24" r="17" fill="#3dd9eb"/><circle cx="24" cy="24" r="14" fill="#7debf5"/><polygon fill="#3dd9eb" points="36.579,30.462 26,22.966 26,10 22,10 22,22.885 22,22.966 11.421,30.462 13.733,33.726 24,26.451 34.267,33.726"/><circle cx="24" cy="24" r="10" fill="#3dd9eb"/><path fill="#00b3d7" d="M26,22.966v-8.775c-0.643-0.145-1.313-0.223-2-0.223s-1.357,0.077-2,0.223v8.775l-7.15,5.066 c0.521,1.256,1.318,2.368,2.314,3.262L24,26.451l6.854,4.856c0.997-0.894,1.793-2.007,2.314-3.262L26,22.966z"/><circle cx="24" cy="24" r="5" fill="#7debf5"/></svg>